<svg id="Слой_1" data-name="Слой 1" xmlns="http://www.w3.org/2000/svg" viewBox="0 0 101 101"><title>log_Монтажная область 5</title><path d="M79.5,39.5a18.89,18.89,0,0,0-7.23,1.44L60.19,17H63.5a1.5,1.5,0,0,0,0-3h-11a1.5,1.5,0,0,0,0,3h4.32l7.07,14H35a1.5,1.5,0,0,0-1.33.81L28.85,41A19,19,0,1,0,40.32,61h10.8a1.5,1.5,0,0,0,1.34-.82L65.54,34.27l4.06,8a19,19,0,1,0,9.9-2.81Zm-58,35a16,16,0,1,1,6-30.84L19.57,58.81A1.5,1.5,0,0,0,20.9,61H37.28A16,16,0,0,1,21.5,74.5ZM30.12,45a16,16,0,0,1,7.35,13H23.37ZM50.19,58H40.47a19,19,0,0,0-9-15.62L35.87,34H62.32ZM79.5,74.5A16,16,0,0,1,71,45l7.41,14.68A1.5,1.5,0,0,0,81,58.32L73.63,43.63A16,16,0,1,1,79.5,74.5Z"/><path d="M27.5,27h14a1.5,1.5,0,0,0,0-3h-14a1.5,1.5,0,0,0,0,3Z"/></svg>