<?xml version="1.0" encoding="utf-8"?>
<!-- Generator: Adobe Illustrator 17.0.0, SVG Export Plug-In . SVG Version: 6.00 Build 0)  -->
<!DOCTYPE svg PUBLIC "-//W3C//DTD SVG 1.1//EN" "http://www.w3.org/Graphics/SVG/1.1/DTD/svg11.dtd">
<svg version="1.1" id="icon" xmlns="http://www.w3.org/2000/svg" xmlns:xlink="http://www.w3.org/1999/xlink" x="0px" y="0px"
	 width="128px" height="128px" viewBox="0 0 128 128" enable-background="new 0 0 128 128" xml:space="preserve">
<ellipse fill="#B8CBCD" cx="65" cy="114.271" rx="47.667" ry="11.813"/>
<path fill="#F7BB83" d="M121,41.5l-7.585-14.235c-0.517-0.971-1.84-1.765-2.94-1.765H17.558c-1.1,0-2.341,0.833-2.759,1.851L9,41.5"
	/>
<path fill="#6E4123" d="M8.999,44.501c-0.379,0-0.765-0.072-1.137-0.225c-1.533-0.628-2.267-2.381-1.638-3.914l5.8-14.149
	c0.881-2.151,3.209-3.713,5.534-3.713h92.916c2.203,0,4.553,1.411,5.588,3.354l7.585,14.235c0.779,1.462,0.226,3.279-1.237,4.058
	c-1.462,0.78-3.279,0.227-4.058-1.237l-7.585-14.235c-0.035-0.028-0.252-0.159-0.364-0.18L17.654,28.5
	c-0.038,0.018-0.083,0.049-0.114,0.077l-5.764,14.061C11.3,43.798,10.18,44.501,8.999,44.501z"/>
<polyline fill="#F7BB83" points="121,40.5 121,107.5 9,107.5 9,40.5 "/>
<path fill="#6E4123" d="M121,109.5H9c-1.104,0-2-0.896-2-2v-67c0-1.104,0.896-2,2-2s2,0.896,2,2v65h108v-65c0-1.104,0.895-2,2-2
	c1.104,0,2,0.896,2,2v67C123,108.604,122.104,109.5,121,109.5z"/>
<polyline fill="#F7BB83" points="26,107.5 26,115.5 16,115.5 16,107.5 "/>
<path fill="#6E4123" d="M26,118.5H16c-1.657,0-3-1.343-3-3v-8c0-1.657,1.343-3,3-3s3,1.343,3,3v5h4v-5c0-1.657,1.343-3,3-3
	s3,1.343,3,3v8C29,117.157,27.657,118.5,26,118.5z"/>
<polyline fill="#F7BB83" points="114,107.5 114,115.5 104,115.5 104,107.5 "/>
<path fill="#6E4123" d="M114,118.5h-10c-1.657,0-3-1.343-3-3v-8c0-1.657,1.343-3,3-3c1.657,0,3,1.343,3,3v5h4v-5
	c0-1.657,1.343-3,3-3c1.657,0,3,1.343,3,3v8C117,117.157,115.657,118.5,114,118.5z"/>
<rect x="23" y="41.5" fill="#FFFFFF" width="11" height="65"/>
<path fill="#6E4123" d="M34,108.5H23c-1.104,0-2-0.896-2-2v-65c0-1.104,0.896-2,2-2h11c1.104,0,2,0.896,2,2v65
	C36,107.604,35.104,108.5,34,108.5z M25,104.5h7v-61h-7V104.5z"/>
<rect x="96" y="41.5" fill="#FFFFFF" width="11" height="65"/>
<path fill="#6E4123" d="M107,108.5H96c-1.105,0-2-0.896-2-2v-65c0-1.104,0.895-2,2-2h11c1.104,0,2,0.896,2,2v65
	C109,107.604,108.104,108.5,107,108.5z M98,104.5h7v-61h-7V104.5z"/>
<rect x="27.823" y="67.011" transform="matrix(0.8997 -0.4365 0.4365 0.8997 -28.2824 27.4701)" fill="#B9E3ED" width="35.63" height="16.543"/>
<path fill="#6E4123" d="M33.22,92.5c-0.221,0-0.442-0.036-0.655-0.11c-0.501-0.174-0.913-0.539-1.144-1.017l-7.22-14.884
	c-0.482-0.994-0.067-2.191,0.926-2.673l32.056-15.552c0.477-0.23,1.026-0.265,1.528-0.09c0.501,0.174,0.913,0.539,1.144,1.017
	l7.221,14.884c0.231,0.477,0.264,1.027,0.09,1.528s-0.539,0.913-1.017,1.145L34.093,92.3C33.818,92.433,33.52,92.5,33.22,92.5z
	 M28.672,76.543l5.474,11.284l28.458-13.806L57.13,62.737L28.672,76.543z"/>
<polygon fill="#FFBAB0" points="76.542,69.5 74.206,57.52 84.665,51.224 87,63.205 "/>
<path fill="#6E4123" d="M76.542,71.5c-0.276,0-0.553-0.057-0.813-0.173c-0.596-0.265-1.026-0.804-1.15-1.444l-2.335-11.98
	c-0.161-0.825,0.211-1.663,0.931-2.097l10.458-6.296c0.559-0.336,1.247-0.381,1.844-0.113c0.596,0.265,1.026,0.804,1.15,1.444
	l2.335,11.981c0.161,0.825-0.211,1.663-0.932,2.097l-10.458,6.295C77.257,71.403,76.9,71.5,76.542,71.5z M76.438,58.511l1.521,7.803
	l6.811-4.1l-1.521-7.803L76.438,58.511z"/>
<polygon fill="#F6E89A" points="73.849,97.5 69.132,88.67 73.849,80.5 83.283,80.5 88,88.67 83.283,97.5 "/>
<path fill="#6E4123" d="M83.283,99.5h-9.434c-0.738,0-1.416-0.406-1.764-1.058l-4.717-8.83c-0.326-0.609-0.313-1.344,0.032-1.942
	l4.717-8.17c0.357-0.619,1.018-1,1.732-1h9.434c0.714,0,1.375,0.381,1.732,1l4.717,8.17c0.346,0.599,0.358,1.333,0.032,1.942
	l-4.717,8.83C84.7,99.094,84.021,99.5,83.283,99.5z M75.048,95.5h7.036l3.628-6.792L82.128,82.5h-7.124l-3.585,6.208L75.048,95.5z"
	/>
<path fill="#6E4123" d="M97,36.5c-1.657,0-3-1.343-3-3v-17H38v17c0,1.657-1.343,3-3,3c-1.657,0-3-1.343-3-3v-20c0-1.657,1.343-3,3-3
	h62c1.657,0,3,1.343,3,3v20C100,35.157,98.657,36.5,97,36.5z"/>
<rect x="43" y="8.5" fill="#F7BB83" width="46" height="9"/>
<path fill="#6E4123" d="M89,20.5H43c-1.657,0-3-1.343-3-3v-9c0-1.657,1.343-3,3-3h46c1.657,0,3,1.343,3,3v9
	C92,19.157,90.657,20.5,89,20.5z M46,14.5h40v-3H46V14.5z"/>
<path fill="#6E4123" d="M15,110.5H9c-1.657,0-3-1.343-3-3v-66c0-1.657,1.343-3,3-3s3,1.343,3,3v63h3c1.657,0,3,1.343,3,3
	S16.657,110.5,15,110.5z"/>
<path fill="#6E4123" d="M121,110.5h-7c-1.657,0-3-1.343-3-3s1.343-3,3-3h4v-63c0-1.657,1.343-3,3-3c1.657,0,3,1.343,3,3v66
	C124,109.157,122.657,110.5,121,110.5z"/>
<path fill="#6E4123" d="M102,110.5H27c-1.657,0-3-1.343-3-3s1.343-3,3-3h75c1.657,0,3,1.343,3,3S103.657,110.5,102,110.5z"/>
<path fill="#6E4123" d="M114,108.5H11c-1.104,0-2-0.896-2-2s0.896-2,2-2h103c1.104,0,2,0.896,2,2S115.104,108.5,114,108.5z"/>
<path fill="#6E4123" d="M122,43.5H9c-1.104,0-2-0.896-2-2s0.896-2,2-2h113c1.104,0,2,0.896,2,2S123.104,43.5,122,43.5z"/>
</svg>
